<svg viewBox="0 0 200 194.108" xmlns="http://www.w3.org/2000/svg">
<path fill="rgb(52,78,65)" d="M199.001,91.397L199.366,93.237L199.650,95.087L199.852,96.945L199.969,98.808L200.000,100.672L199.944,102.534L199.801,104.389L199.571,106.236L199.256,108.070L198.856,109.888L198.374,111.688L197.812,113.465L197.173,115.219L196.462,116.947L195.682,118.646L194.837,120.315L193.932,121.953L192.973,123.559L191.963,125.133L190.910,126.673L189.816,128.182L188.689,129.659L187.533,131.104L186.354,132.521L185.156,133.909L183.943,135.271L182.721,136.608L181.493,137.924L180.262,139.219L179.033,140.497L177.808,141.761L176.588,143.011L175.377,144.251L174.176,145.484L172.985,146.710L171.804,147.933L170.636,149.154L169.477,150.375L168.330,151.597L167.191,152.821L166.061,154.048L164.937,155.279L163.817,156.513L162.701,157.751L161.585,158.993L160.468,160.238L159.347,161.485L158.220,162.733L157.085,163.980L155.939,165.227L154.782,166.470L153.609,167.708L152.421,168.939L151.215,170.161L149.989,171.373L148.742,172.572L147.474,173.757L146.183,174.924L144.867,176.073L143.528,177.201L142.163,178.306L140.774,179.387L139.359,180.441L137.919,181.467L136.454,182.464L134.964,183.429L133.450,184.361L131.912,185.259L130.350,186.121L128.766,186.946L127.160,187.732L125.533,188.478L123.885,189.183L122.219,189.846L120.534,190.464L118.832,191.038L117.115,191.566L115.383,192.047L113.638,192.479L111.880,192.863L110.112,193.196L108.336,193.478L106.551,193.709L104.761,193.887L102.967,194.013L101.170,194.087L99.372,194.108L97.575,194.077L95.780,193.993L93.989,193.859L92.204,193.675L90.426,193.442L88.656,193.161L86.896,192.835L85.147,192.466L83.410,192.055L81.685,191.606L79.974,191.120L78.277,190.602L76.594,190.053L74.924,189.477L73.269,188.876L71.628,188.255L69.999,187.616L68.383,186.961L66.778,186.295L65.183,185.619L63.597,184.936L62.018,184.247L60.446,183.556L58.879,182.863L57.315,182.169L55.753,181.476L54.192,180.783L52.631,180.091L51.068,179.398L49.504,178.705L47.937,178.010L46.367,177.310L44.795,176.605L43.220,175.891L41.644,175.166L40.068,174.428L38.494,173.673L36.922,172.897L35.356,172.099L33.798,171.274L32.250,170.419L30.717,169.532L29.201,168.609L27.706,167.647L26.236,166.644L24.795,165.599L23.386,164.509L22.015,163.372L20.683,162.188L19.396,160.956L18.157,159.677L16.969,158.349L15.836,156.975L14.760,155.556L13.744,154.092L12.789,152.586L11.898,151.040L11.071,149.457L10.309,147.840L9.612,146.192L8.981,144.516L8.413,142.816L7.909,141.096L7.466,139.358L7.082,137.607L6.755,135.846L6.481,134.078L6.259,132.307L6.084,130.535L5.953,128.766L5.862,127.003L5.807,125.247L5.784,123.501L5.790,121.767L5.820,120.045L5.869,118.338L5.935,116.646L6.013,114.970L6.100,113.310L6.192,111.667L6.286,110.039L6.378,108.427L6.465,106.830L6.545,105.247L6.616,103.677L6.674,102.118L6.717,100.570L6.745,99.030L6.754,97.497L6.744,95.970L6.713,94.445L6.660,92.922L6.585,91.397L6.487,89.870L6.365,88.337L6.219,86.797L6.050,85.248L5.858,83.687L5.642,82.112L5.406,80.521L5.148,78.911L4.871,77.282L4.577,75.631L4.267,73.957L3.944,72.258L3.610,70.532L3.269,68.778L2.923,66.996L2.577,65.185L2.233,63.345L1.897,61.475L1.572,59.576L1.264,57.648L0.977,55.693L0.717,53.713L0.489,51.709L0.297,49.683L0.148,47.639L0.047,45.579L0.000,43.507L0.011,41.428L0.087,39.346L0.231,37.266L0.448,35.192L0.744,33.131L1.121,31.088L1.583,29.069L2.133,27.079L2.774,25.126L3.507,23.214L4.334,21.351L5.255,19.542L6.270,17.792L7.378,16.107L8.578,14.493L9.868,12.953L11.245,11.492L12.706,10.114L14.247,8.822L15.864,7.618L17.552,6.505L19.306,5.484L21.119,4.554L22.988,3.718L24.904,2.973L26.863,2.318L28.858,1.752L30.883,1.272L32.931,0.875L34.998,0.558L37.076,0.316L39.160,0.146L41.245,0.042L43.327,0.000L45.400,0.015L47.461,0.080L49.505,0.192L51.531,0.344L53.533,0.532L55.512,0.750L57.464,0.993L59.388,1.257L61.282,1.536L63.148,1.828L64.983,2.126L66.789,2.429L68.565,2.733L70.313,3.035L72.032,3.333L73.725,3.623L75.392,3.906L77.035,4.178L78.656,4.440L80.256,4.689L81.837,4.927L83.400,5.152L84.947,5.365L86.480,5.566L88.001,5.756L89.510,5.935L91.011,6.105L92.503,6.265L93.989,6.418L95.470,6.565L96.947,6.707L98.420,6.846L99.892,6.983L101.362,7.120L102.833,7.258L104.303,7.400L105.774,7.546L107.246,7.699L108.719,7.860L110.194,8.031L111.670,8.214L113.148,8.411L114.627,8.624L116.107,8.853L117.587,9.102L119.067,9.370L120.547,9.662L122.025,9.977L123.500,10.317L124.972,10.684L126.440,11.079L127.902,11.504L129.357,11.960L130.804,12.447L132.242,12.966L133.670,13.520L135.085,14.107L136.487,14.729L137.875,15.385L139.247,16.076L140.601,16.803L141.938,17.563L143.255,18.358L144.552,19.186L145.828,20.048L147.082,20.940L148.315,21.864L149.524,22.817L150.712,23.798L151.877,24.805L153.019,25.838L154.140,26.893L155.240,27.970L156.319,29.067L157.379,30.182L158.421,31.313L159.447,32.459L160.457,33.617L161.454,34.787L162.440,35.967L163.416,37.155L164.384,38.351L165.347,39.553L166.306,40.761L167.263,41.973L168.221,43.191L169.181,44.412L170.145,45.638L171.116,46.868L172.093,48.104L173.079,49.345L174.074,50.592L175.079,51.847L176.095,53.111L177.122,54.384L178.159,55.669L179.206,56.967L180.262,58.280L181.325,59.610L182.394,60.957L183.466,62.324L184.539,63.713L185.610,65.125L186.676,66.562L187.732,68.025L188.775,69.514L189.801,71.032L190.805,72.578L191.783,74.154L192.728,75.759L193.637,77.393L194.505,79.055L195.326,80.746L196.095,82.464L196.807,84.208L197.458,85.975L198.044,87.764L198.559,89.572Z" />
</svg>